<svg xmlns="http://www.w3.org/2000/svg" width="142" height="27" fill="none" viewBox="0 0 142 27"><path fill="url(#paint0_linear_161_3)" d="M15.964 2.42L6.928 13.832L16.9 26H12.976L3.76 14.444V26H0.7V2.42H3.76V13.796L12.544 2.42H15.964ZM26.1922 1.988C28.8802 1.988 30.8602 2.66 32.1322 4.004C33.4042 5.348 34.0402 7.256 34.0402 9.728V18.692C34.0402 21.164 33.4042 23.072 32.1322 24.416C30.8602 25.76 28.8802 26.432 26.1922 26.432C23.5042 26.432 21.5242 25.76 20.2522 24.416C18.9802 23.072 18.3442 21.164 18.3442 18.692V9.728C18.3442 7.256 18.9802 5.348 20.2522 4.004C21.5242 2.66 23.5042 1.988 26.1922 1.988ZM26.1922 4.688C24.6082 4.688 23.4082 5.084 22.5922 5.876C21.8002 6.668 21.4042 7.832 21.4042 9.368V19.016C21.4042 20.552 21.8002 21.728 22.5922 22.544C23.4082 23.336 24.6082 23.732 26.1922 23.732C27.7762 23.732 28.9642 23.336 29.7562 22.544C30.5722 21.728 30.9802 20.552 30.9802 19.016V9.404C30.9802 7.868 30.5722 6.704 29.7562 5.912C28.9642 5.096 27.7762 4.688 26.1922 4.688ZM50.0664 26L42.2904 6.092V26H39.2664V2.42H44.1624L51.7944 22.328V2.42H54.8184V26H50.0664ZM66.8075 1.988C69.6635 1.988 71.8595 2.804 73.3955 4.436C74.9555 6.044 75.7355 8.372 75.7355 11.42V17.324C75.7355 20.252 74.9555 22.508 73.3955 24.092C71.8595 25.652 69.6035 26.432 66.6275 26.432C64.5875 26.432 62.4515 26.36 60.2195 26.216V2.132C62.3795 2.036 64.5755 1.988 66.8075 1.988ZM66.6275 4.58C65.8835 4.58 64.7675 4.604 63.2795 4.652V23.588C64.6955 23.732 65.8115 23.804 66.6275 23.804C68.4755 23.804 69.9395 23.276 71.0195 22.22C72.1235 21.14 72.6755 19.592 72.6755 17.576V11.204C72.6755 9.02 72.1475 7.376 71.0915 6.272C70.0355 5.144 68.5475 4.58 66.6275 4.58ZM96.1219 18.548C96.1219 21.092 95.4739 23.048 94.1779 24.416C92.8819 25.76 90.9739 26.432 88.4539 26.432C85.9579 26.432 84.0499 25.772 82.7299 24.452C81.4339 23.132 80.7859 21.188 80.7859 18.62V2.42H83.8459V19.016C83.8459 20.552 84.2419 21.728 85.0339 22.544C85.8499 23.336 86.9899 23.732 88.4539 23.732C89.9419 23.732 91.0819 23.336 91.8739 22.544C92.6659 21.728 93.0619 20.552 93.0619 19.016V2.42H96.1219V18.548ZM114.488 2.42V4.832L103.832 23.228H114.488V26H100.268V23.588L110.924 5.192H100.484V2.42H114.488ZM127.573 2.42L134.809 26H131.497L129.949 20.528H121.273L119.725 26H116.593L123.793 2.42H127.573ZM125.629 5.228L122.029 17.792H129.193L125.629 5.228ZM140.793 0.979998L140.541 18.8H137.625L137.373 0.979998H140.793ZM139.065 22.112C139.713 22.112 140.205 22.256 140.541 22.544C140.901 22.832 141.081 23.24 141.081 23.768V24.812C141.081 25.34 140.901 25.736 140.541 26C140.205 26.288 139.713 26.432 139.065 26.432C138.441 26.432 137.949 26.288 137.589 26C137.253 25.736 137.085 25.34 137.085 24.812V23.768C137.085 23.24 137.253 22.832 137.589 22.544C137.949 22.256 138.441 22.112 139.065 22.112Z"/><path fill="url(#paint1_linear_161_3)" d="M15.964 2.42L6.928 13.832L16.9 26H12.976L3.76 14.444V26H0.7V2.42H3.76V13.796L12.544 2.42H15.964ZM26.1922 1.988C28.8802 1.988 30.8602 2.66 32.1322 4.004C33.4042 5.348 34.0402 7.256 34.0402 9.728V18.692C34.0402 21.164 33.4042 23.072 32.1322 24.416C30.8602 25.76 28.8802 26.432 26.1922 26.432C23.5042 26.432 21.5242 25.76 20.2522 24.416C18.9802 23.072 18.3442 21.164 18.3442 18.692V9.728C18.3442 7.256 18.9802 5.348 20.2522 4.004C21.5242 2.66 23.5042 1.988 26.1922 1.988ZM26.1922 4.688C24.6082 4.688 23.4082 5.084 22.5922 5.876C21.8002 6.668 21.4042 7.832 21.4042 9.368V19.016C21.4042 20.552 21.8002 21.728 22.5922 22.544C23.4082 23.336 24.6082 23.732 26.1922 23.732C27.7762 23.732 28.9642 23.336 29.7562 22.544C30.5722 21.728 30.9802 20.552 30.9802 19.016V9.404C30.9802 7.868 30.5722 6.704 29.7562 5.912C28.9642 5.096 27.7762 4.688 26.1922 4.688ZM50.0664 26L42.2904 6.092V26H39.2664V2.42H44.1624L51.7944 22.328V2.42H54.8184V26H50.0664ZM66.8075 1.988C69.6635 1.988 71.8595 2.804 73.3955 4.436C74.9555 6.044 75.7355 8.372 75.7355 11.42V17.324C75.7355 20.252 74.9555 22.508 73.3955 24.092C71.8595 25.652 69.6035 26.432 66.6275 26.432C64.5875 26.432 62.4515 26.36 60.2195 26.216V2.132C62.3795 2.036 64.5755 1.988 66.8075 1.988ZM66.6275 4.58C65.8835 4.58 64.7675 4.604 63.2795 4.652V23.588C64.6955 23.732 65.8115 23.804 66.6275 23.804C68.4755 23.804 69.9395 23.276 71.0195 22.22C72.1235 21.14 72.6755 19.592 72.6755 17.576V11.204C72.6755 9.02 72.1475 7.376 71.0915 6.272C70.0355 5.144 68.5475 4.58 66.6275 4.58ZM96.1219 18.548C96.1219 21.092 95.4739 23.048 94.1779 24.416C92.8819 25.76 90.9739 26.432 88.4539 26.432C85.9579 26.432 84.0499 25.772 82.7299 24.452C81.4339 23.132 80.7859 21.188 80.7859 18.62V2.42H83.8459V19.016C83.8459 20.552 84.2419 21.728 85.0339 22.544C85.8499 23.336 86.9899 23.732 88.4539 23.732C89.9419 23.732 91.0819 23.336 91.8739 22.544C92.6659 21.728 93.0619 20.552 93.0619 19.016V2.42H96.1219V18.548ZM114.488 2.42V4.832L103.832 23.228H114.488V26H100.268V23.588L110.924 5.192H100.484V2.42H114.488ZM127.573 2.42L134.809 26H131.497L129.949 20.528H121.273L119.725 26H116.593L123.793 2.42H127.573ZM125.629 5.228L122.029 17.792H129.193L125.629 5.228ZM140.793 0.979998L140.541 18.8H137.625L137.373 0.979998H140.793ZM139.065 22.112C139.713 22.112 140.205 22.256 140.541 22.544C140.901 22.832 141.081 23.24 141.081 23.768V24.812C141.081 25.34 140.901 25.736 140.541 26C140.205 26.288 139.713 26.432 139.065 26.432C138.441 26.432 137.949 26.288 137.589 26C137.253 25.736 137.085 25.34 137.085 24.812V23.768C137.085 23.24 137.253 22.832 137.589 22.544C137.949 22.256 138.441 22.112 139.065 22.112Z"/><defs><linearGradient id="paint0_linear_161_3" x1="72.5" x2="72.5" y1="-4" y2="31" gradientUnits="userSpaceOnUse"><stop stop-color="#00A8E8"/><stop offset="1" stop-color="#00A8E8" stop-opacity="0"/><stop offset="1" stop-color="#FFA200"/></linearGradient><linearGradient id="paint1_linear_161_3" x1="72.5" x2="72.5" y1="-4" y2="31" gradientUnits="userSpaceOnUse"><stop stop-color="#00A8E8"/><stop offset="1" stop-color="#00FFA3"/></linearGradient></defs></svg>